<svg width="44" height="44" viewBox="0 0 44 44" fill="none" xmlns="http://www.w3.org/2000/svg">
<g clip-path="url(#clip0_56005_2506)">
<g clip-path="url(#clip1_56005_2506)">
<path d="M34.9217 6.85517C38.5321 9.93757 40.9223 14.2095 41.6608 18.9C42.3994 23.5904 41.4377 28.3906 38.9494 32.434C36.461 36.4775 32.6099 39.498 28.0909 40.9505C23.572 42.403 18.6828 42.1917 14.3059 40.3549C14.0166 40.2277 13.696 40.1894 13.3849 40.245L4.39204 41.8499L4.17315 41.8718C4.10024 41.8758 4.02716 41.8758 3.95425 41.8718L3.75128 41.8459L3.53637 41.7981L3.32742 41.7245L3.13042 41.6309L2.94535 41.5155L2.91749 41.4936C2.90161 41.4843 2.88656 41.4736 2.87254 41.4617L2.72248 41.3343L2.56926 41.1751L2.43593 40.9999L2.32449 40.8127L2.25684 40.6734L2.17724 40.4584L2.12152 40.2036L2.09764 40.0005C2.09245 39.9177 2.09245 39.8346 2.09764 39.7517L2.12152 39.5526L2.16928 39.3336L2.25883 39.0908L5.09723 32.5439C5.10546 32.5249 5.10369 32.503 5.0925 32.4856C2.7001 28.6219 1.70128 24.0556 2.26203 19.5455C2.82277 15.0353 4.90931 10.8529 8.17491 7.69326L8.60275 7.28915C12.1847 4.02332 16.8349 2.17743 21.6806 2.0979C26.5264 2.01836 31.2346 3.70865 34.9217 6.85517Z" fill="url(#paint0_linear_56005_2506)"/>
<path d="M13.0816 13.0767C13.7403 12.4179 14.6337 12.0479 15.5653 12.0479C16.4969 12.0479 17.3904 12.4179 18.0491 13.0767C18.7079 13.7354 19.0779 14.6289 19.0779 15.5605V17.9022C19.0782 18.4977 18.927 19.0836 18.6386 19.6046C18.3503 20.1257 17.9341 20.5649 17.4294 20.8809L17.2537 20.9769L17.2725 21.0308C17.7397 22.345 18.4939 23.5387 19.4803 24.5251C20.4666 25.5114 21.6603 26.2656 22.9746 26.7329L23.0261 26.7493L23.1245 26.576C23.4102 26.1197 23.797 25.7352 24.2551 25.4522C24.7131 25.1692 25.23 24.9952 25.7659 24.9438L26.1032 24.9274H28.4449C29.3765 24.9274 30.2699 25.2975 30.9287 25.9562C31.5874 26.615 31.9575 27.5084 31.9575 28.44C31.9575 29.3716 31.5874 30.2651 30.9287 30.9238C30.2699 31.5825 29.3765 31.9526 28.4449 31.9526H26.1032C22.3768 31.9526 18.803 30.4723 16.168 27.8373C13.533 25.2024 12.0527 21.6286 12.0527 17.9022V15.5605C12.0527 14.6289 12.4228 13.7354 13.0816 13.0767Z" fill="url(#paint1_linear_56005_2506)"/>
</g>
</g>
<defs>
<linearGradient id="paint0_linear_56005_2506" x1="21.9985" y1="2.09521" x2="21.9985" y2="41.9047" gradientUnits="userSpaceOnUse">
<stop stop-color="#22DB5F"/>
<stop offset="1" stop-color="#1BD540"/>
</linearGradient>
<linearGradient id="paint1_linear_56005_2506" x1="22.0051" y1="12.0479" x2="22.0051" y2="31.9526" gradientUnits="userSpaceOnUse">
<stop stop-color="#FCFFFB"/>
<stop offset="1" stop-color="#FCFFFB" stop-opacity="0.65"/>
</linearGradient>
<clipPath id="clip0_56005_2506">
<rect width="44" height="44" fill="white"/>
</clipPath>
<clipPath id="clip1_56005_2506">
<rect width="44" height="44" fill="white"/>
</clipPath>
</defs>
</svg>
